<svg width="128" height="128" viewBox="0 0 128 128" fill="none" xmlns="http://www.w3.org/2000/svg">
  <rect width="128" height="128" rx="28" fill="#FFF7FB"/>
  <path d="M36 70C28 70 22 64 22 56C22 48 28 42 36 42C38 32 46 24 58 24C68 24 76 30 80 38C81 38 82 38 84 38C96 38 106 48 106 60C106 72 96 82 84 82H42C38 82 36 78 36 74V70Z" fill="#FF8ACB"/>
  <path d="M44 76C38 76 34 72 34 66C34 60 38 56 44 56C46 48 52 42 62 42C70 42 76 46 80 52C81 52 82 52 84 52C94 52 102 60 102 70C102 80 94 88 84 88H50C46 88 44 84 44 80V76Z" fill="#8FD3FF" fill-opacity="0.9"/>
</svg>
